<svg viewBox="0 0 100 100" xmlns="http://www.w3.org/2000/svg">
  <circle r="50.0" cx="50.0" cy="50.0" style="fill: #ADB5BD" />
  <rect x="16.666666666666664" y="33.333333333333336" width="16.666666666666668" height="8.333333333333334" rx="4.166666666666667" ry="4.166666666666667" style="fill: #495057" />
  <rect x="16.666666666666664" y="45.833333333333336" width="16.666666666666668" height="8.333333333333334" rx="4.166666666666667" ry="4.166666666666667" style="fill: #495057" />
  <rect x="16.666666666666664" y="58.333333333333336" width="16.666666666666668" height="8.333333333333334" rx="4.166666666666667" ry="4.166666666666667" style="fill: #495057" />
  <rect x="58.33333333333333" y="16.666666666666664" width="8.333333333333334" height="16.666666666666668" rx="4.166666666666667" ry="4.166666666666667" style="fill: #495057" />
  <rect x="45.83333333333333" y="16.666666666666664" width="8.333333333333334" height="16.666666666666668" rx="4.166666666666667" ry="4.166666666666667" style="fill: #495057" />
  <rect x="33.33333333333333" y="16.666666666666664" width="8.333333333333334" height="16.666666666666668" rx="4.166666666666667" ry="4.166666666666667" style="fill: #495057" />
  <rect x="33.333333333333336" y="66.66666666666667" width="8.333333333333334" height="16.666666666666668" rx="4.166666666666667" ry="4.166666666666667" style="fill: #495057" />
  <rect x="45.833333333333336" y="66.66666666666667" width="8.333333333333334" height="16.666666666666668" rx="4.166666666666667" ry="4.166666666666667" style="fill: #495057" />
  <rect x="58.333333333333336" y="66.66666666666667" width="8.333333333333334" height="16.666666666666668" rx="4.166666666666667" ry="4.166666666666667" style="fill: #495057" />
  <rect x="66.66666666666667" y="58.33333333333333" width="16.666666666666668" height="8.333333333333334" rx="4.166666666666667" ry="4.166666666666667" style="fill: #495057" />
  <rect x="66.66666666666667" y="45.83333333333333" width="16.666666666666668" height="8.333333333333334" rx="4.166666666666667" ry="4.166666666666667" style="fill: #495057" />
  <rect x="66.66666666666667" y="33.33333333333333" width="16.666666666666668" height="8.333333333333334" rx="4.166666666666667" ry="4.166666666666667" style="fill: #495057" />
  <rect x="25.0" y="25.0" width="50.0" height="50.0" rx="8.333333333333334" ry="8.333333333333334" style="fill: #212529" />
  <line stroke-linecap="round" style="stroke:#DEE2E6;stroke-width:3.125" x1="31.25" y1="50.0" x2="40.625" y2="59.375" />
  <line stroke-linecap="round" style="stroke:#DEE2E6;stroke-width:3.125" x1="31.25" y1="50.0" x2="40.625" y2="40.625" />
  <line stroke-linecap="round" style="stroke:#DEE2E6;stroke-width:3.125" x1="68.75" y1="50.0" x2="59.375" y2="59.375" />
  <line stroke-linecap="round" style="stroke:#DEE2E6;stroke-width:3.125" x1="68.75" y1="50.0" x2="59.375" y2="40.625" />
  <line stroke-linecap="round" style="stroke:#DEE2E6;stroke-width:3.125" x1="45.3125" y1="61.71875" x2="50.0" y2="50.0" />
  <line stroke-linecap="round" style="stroke:#DEE2E6;stroke-width:3.125" x1="54.6875" y1="38.28125" x2="50.0" y2="50.0" />
</svg>
