<?xml version="1.0" encoding="UTF-8" standalone="no"?>
<!DOCTYPE svg PUBLIC "-//W3C//DTD SVG 1.1//EN"
 "http://www.w3.org/Graphics/SVG/1.1/DTD/svg11.dtd">
<!-- Generated by graphviz version 3.0.1~dev.20220405.0544 (20220405.0544)
 -->
<!-- Title: G Pages: 1 -->
<svg width="421pt" height="578pt"
 viewBox="0.00 0.00 421.05 578.32" xmlns="http://www.w3.org/2000/svg" xmlns:xlink="http://www.w3.org/1999/xlink">
<g id="graph0" class="graph" transform="scale(1 1) rotate(0) translate(4 574.32)">
<title>G</title><style>.edge>path:hover{stroke-width:8}</style>
<polygon fill="white" stroke="transparent" points="-4,4 -4,-574.32 417.05,-574.32 417.05,4 -4,4"/>
<!-- runtimepy___main__ -->
<g id="node1" class="node">
<title>runtimepy___main__</title><style>.edge>path:hover{stroke-width:8}</style>
<ellipse fill="#ac4949" stroke="black" cx="47.73" cy="-308.82" rx="44.15" ry="22.76"/>
<text text-anchor="middle" x="47.73" y="-311.82" font-family="Helvetica,sans-Serif" font-size="10.00" fill="#ffffff">runtimepy.</text>
<text text-anchor="middle" x="47.73" y="-299.82" font-family="Helvetica,sans-Serif" font-size="10.00" fill="#ffffff">__main__</text>
</g>
<!-- runtimepy_app -->
<g id="node2" class="node">
<title>runtimepy_app</title><style>.edge>path:hover{stroke-width:8}</style>
<ellipse fill="#c24747" stroke="black" cx="47.73" cy="-530.72" rx="47.96" ry="18"/>
<text text-anchor="middle" x="47.73" y="-527.72" font-family="Helvetica,sans-Serif" font-size="10.00" fill="#ffffff">runtimepy.app</text>
</g>
<!-- runtimepy_entry -->
<g id="node3" class="node">
<title>runtimepy_entry</title><style>.edge>path:hover{stroke-width:8}</style>
<ellipse fill="#b83d3d" stroke="black" cx="47.73" cy="-415.53" rx="44.15" ry="22.76"/>
<text text-anchor="middle" x="47.73" y="-418.53" font-family="Helvetica,sans-Serif" font-size="10.00" fill="#ffffff">runtimepy.</text>
<text text-anchor="middle" x="47.73" y="-406.53" font-family="Helvetica,sans-Serif" font-size="10.00" fill="#ffffff">entry</text>
</g>
<!-- runtimepy_app&#45;&gt;runtimepy_entry -->
<g id="edge1" class="edge">
<title>runtimepy_app&#45;&gt;runtimepy_entry</title><style>.edge>path:hover{stroke-width:8}</style>
<path fill="none" stroke="black" d="M47.73,-512.53C47.73,-495.68 47.73,-469.57 47.73,-448.83"/>
<polygon fill="#c24747" stroke="black" points="51.23,-448.56 47.73,-438.56 44.23,-448.56 51.23,-448.56"/>
</g>
<!-- runtimepy_entry&#45;&gt;runtimepy___main__ -->
<g id="edge2" class="edge">
<title>runtimepy_entry&#45;&gt;runtimepy___main__</title><style>.edge>path:hover{stroke-width:8}</style>
<path fill="none" stroke="black" d="M47.73,-392.83C47.73,-378.09 47.73,-358.34 47.73,-341.81"/>
<polygon fill="#b83d3d" stroke="black" points="51.23,-341.49 47.73,-331.49 44.23,-341.49 51.23,-341.49"/>
</g>
<!-- runtimepy_primitives -->
<g id="node4" class="node">
<title>runtimepy_primitives</title><style>.edge>path:hover{stroke-width:8}</style>
<ellipse fill="#d10505" stroke="black" cx="256.73" cy="-22.63" rx="44.15" ry="22.76"/>
<text text-anchor="middle" x="256.73" y="-25.63" font-family="Helvetica,sans-Serif" font-size="10.00" fill="#ffffff">runtimepy.</text>
<text text-anchor="middle" x="256.73" y="-13.63" font-family="Helvetica,sans-Serif" font-size="10.00" fill="#ffffff">primitives</text>
</g>
<!-- runtimepy_primitives_base -->
<g id="node5" class="node">
<title>runtimepy_primitives_base</title><style>.edge>path:hover{stroke-width:8}</style>
<ellipse fill="#c82323" stroke="black" cx="297.73" cy="-210.59" rx="44.15" ry="31.23"/>
<text text-anchor="middle" x="297.73" y="-219.59" font-family="Helvetica,sans-Serif" font-size="10.00" fill="#ffffff">runtimepy.</text>
<text text-anchor="middle" x="297.73" y="-207.59" font-family="Helvetica,sans-Serif" font-size="10.00" fill="#ffffff">primitives.</text>
<text text-anchor="middle" x="297.73" y="-195.59" font-family="Helvetica,sans-Serif" font-size="10.00" fill="#ffffff">base</text>
</g>
<!-- runtimepy_primitives_bool -->
<g id="node6" class="node">
<title>runtimepy_primitives_bool</title><style>.edge>path:hover{stroke-width:8}</style>
<ellipse fill="#a13535" stroke="black" cx="149.73" cy="-112.37" rx="44.15" ry="31.23"/>
<text text-anchor="middle" x="149.73" y="-121.37" font-family="Helvetica,sans-Serif" font-size="10.00" fill="#ffffff">runtimepy.</text>
<text text-anchor="middle" x="149.73" y="-109.37" font-family="Helvetica,sans-Serif" font-size="10.00" fill="#ffffff">primitives.</text>
<text text-anchor="middle" x="149.73" y="-97.37" font-family="Helvetica,sans-Serif" font-size="10.00" fill="#ffffff">bool</text>
</g>
<!-- runtimepy_primitives_base&#45;&gt;runtimepy_primitives_bool -->
<g id="edge3" class="edge">
<title>runtimepy_primitives_base&#45;&gt;runtimepy_primitives_bool</title><style>.edge>path:hover{stroke-width:8}</style>
<path fill="none" stroke="black" d="M265.61,-188.71C243.5,-174.34 213.96,-155.13 190.23,-139.7"/>
<polygon fill="#c82323" stroke="black" points="192.07,-136.72 181.78,-134.21 188.25,-142.59 192.07,-136.72"/>
</g>
<!-- runtimepy_primitives_float -->
<g id="node7" class="node">
<title>runtimepy_primitives_float</title><style>.edge>path:hover{stroke-width:8}</style>
<ellipse fill="#a13535" stroke="black" cx="256.73" cy="-112.37" rx="44.15" ry="31.23"/>
<text text-anchor="middle" x="256.73" y="-121.37" font-family="Helvetica,sans-Serif" font-size="10.00" fill="#ffffff">runtimepy.</text>
<text text-anchor="middle" x="256.73" y="-109.37" font-family="Helvetica,sans-Serif" font-size="10.00" fill="#ffffff">primitives.</text>
<text text-anchor="middle" x="256.73" y="-97.37" font-family="Helvetica,sans-Serif" font-size="10.00" fill="#ffffff">float</text>
</g>
<!-- runtimepy_primitives_base&#45;&gt;runtimepy_primitives_float -->
<g id="edge4" class="edge">
<title>runtimepy_primitives_base&#45;&gt;runtimepy_primitives_float</title><style>.edge>path:hover{stroke-width:8}</style>
<path fill="none" stroke="black" d="M285.32,-180.46C281.46,-171.42 277.15,-161.31 273.08,-151.73"/>
<polygon fill="#c82323" stroke="black" points="276.24,-150.23 269.1,-142.4 269.8,-152.97 276.24,-150.23"/>
</g>
<!-- runtimepy_primitives_int -->
<g id="node8" class="node">
<title>runtimepy_primitives_int</title><style>.edge>path:hover{stroke-width:8}</style>
<ellipse fill="#a13535" stroke="black" cx="363.73" cy="-112.37" rx="44.15" ry="31.23"/>
<text text-anchor="middle" x="363.73" y="-121.37" font-family="Helvetica,sans-Serif" font-size="10.00" fill="#ffffff">runtimepy.</text>
<text text-anchor="middle" x="363.73" y="-109.37" font-family="Helvetica,sans-Serif" font-size="10.00" fill="#ffffff">primitives.</text>
<text text-anchor="middle" x="363.73" y="-97.37" font-family="Helvetica,sans-Serif" font-size="10.00" fill="#ffffff">int</text>
</g>
<!-- runtimepy_primitives_base&#45;&gt;runtimepy_primitives_int -->
<g id="edge5" class="edge">
<title>runtimepy_primitives_base&#45;&gt;runtimepy_primitives_int</title><style>.edge>path:hover{stroke-width:8}</style>
<path fill="none" stroke="black" d="M316.46,-182.28C323.5,-172.02 331.61,-160.2 339.1,-149.27"/>
<polygon fill="#c82323" stroke="black" points="342.17,-150.98 344.94,-140.75 336.4,-147.02 342.17,-150.98"/>
</g>
<!-- runtimepy_primitives_bool&#45;&gt;runtimepy_primitives -->
<g id="edge6" class="edge">
<title>runtimepy_primitives_bool&#45;&gt;runtimepy_primitives</title><style>.edge>path:hover{stroke-width:8}</style>
<path fill="none" stroke="black" d="M178.12,-88.09C192.85,-76.01 210.87,-61.23 225.93,-48.88"/>
<polygon fill="#a13535" stroke="black" points="228.45,-51.34 233.96,-42.3 224.01,-45.93 228.45,-51.34"/>
</g>
<!-- runtimepy_primitives_float&#45;&gt;runtimepy_primitives -->
<g id="edge7" class="edge">
<title>runtimepy_primitives_float&#45;&gt;runtimepy_primitives</title><style>.edge>path:hover{stroke-width:8}</style>
<path fill="none" stroke="black" d="M256.73,-81.17C256.73,-72.88 256.73,-63.86 256.73,-55.47"/>
<polygon fill="#a13535" stroke="black" points="260.23,-55.29 256.73,-45.29 253.23,-55.29 260.23,-55.29"/>
</g>
<!-- runtimepy_primitives_int&#45;&gt;runtimepy_primitives -->
<g id="edge8" class="edge">
<title>runtimepy_primitives_int&#45;&gt;runtimepy_primitives</title><style>.edge>path:hover{stroke-width:8}</style>
<path fill="none" stroke="black" d="M335.33,-88.09C320.6,-76.01 302.59,-61.23 287.52,-48.88"/>
<polygon fill="#a13535" stroke="black" points="289.45,-45.93 279.49,-42.3 285.01,-51.34 289.45,-45.93"/>
</g>
<!-- runtimepy_primitives_type -->
<g id="node9" class="node">
<title>runtimepy_primitives_type</title><style>.edge>path:hover{stroke-width:8}</style>
<ellipse fill="#c70505" stroke="black" cx="261.73" cy="-308.82" rx="44.15" ry="31.23"/>
<text text-anchor="middle" x="261.73" y="-317.82" font-family="Helvetica,sans-Serif" font-size="10.00" fill="#ffffff">runtimepy.</text>
<text text-anchor="middle" x="261.73" y="-305.82" font-family="Helvetica,sans-Serif" font-size="10.00" fill="#ffffff">primitives.</text>
<text text-anchor="middle" x="261.73" y="-293.82" font-family="Helvetica,sans-Serif" font-size="10.00" fill="#ffffff">type</text>
</g>
<!-- runtimepy_primitives_type&#45;&gt;runtimepy_primitives_base -->
<g id="edge9" class="edge">
<title>runtimepy_primitives_type&#45;&gt;runtimepy_primitives_base</title><style>.edge>path:hover{stroke-width:8}</style>
<path fill="none" stroke="black" d="M272.72,-278.42C276.04,-269.56 279.73,-259.7 283.24,-250.33"/>
<polygon fill="#c70505" stroke="black" points="286.57,-251.4 286.8,-240.81 280.02,-248.95 286.57,-251.4"/>
</g>
<!-- runtimepy_primitives_type&#45;&gt;runtimepy_primitives_bool -->
<g id="edge10" class="edge">
<title>runtimepy_primitives_type&#45;&gt;runtimepy_primitives_bool</title><style>.edge>path:hover{stroke-width:8}</style>
<path fill="none" stroke="black" d="M249.62,-278.7C242.07,-259.8 232.52,-234.51 225.73,-211.59"/>
<path fill="none" stroke="black" d="M225.73,-209.59C218.38,-184.81 200.91,-161.9 184.57,-144.65"/>
<polygon fill="#c70505" stroke="black" points="186.69,-141.81 177.18,-137.13 181.7,-146.72 186.69,-141.81"/>
</g>
<!-- runtimepy_primitives_type&#45;&gt;runtimepy_primitives_float -->
<g id="edge11" class="edge">
<title>runtimepy_primitives_type&#45;&gt;runtimepy_primitives_float</title><style>.edge>path:hover{stroke-width:8}</style>
<path fill="none" stroke="black" d="M225.73,-209.59C219.86,-189.82 225.92,-167.92 234.18,-150.02"/>
<polygon fill="#c70505" stroke="black" points="237.32,-151.56 238.65,-141.05 231.06,-148.44 237.32,-151.56"/>
</g>
<!-- runtimepy_primitives_type&#45;&gt;runtimepy_primitives_int -->
<g id="edge12" class="edge">
<title>runtimepy_primitives_type&#45;&gt;runtimepy_primitives_int</title><style>.edge>path:hover{stroke-width:8}</style>
<path fill="none" stroke="black" d="M297.98,-290.73C326.05,-274.89 361.5,-248.22 369.73,-211.59"/>
<path fill="none" stroke="black" d="M369.73,-209.59C373.8,-191.47 373.21,-170.98 371.24,-153.58"/>
<polygon fill="#c70505" stroke="black" points="374.65,-152.64 369.86,-143.19 367.71,-153.56 374.65,-152.64"/>
</g>
<!-- runtimepy_primitives_type_base -->
<g id="node10" class="node">
<title>runtimepy_primitives_type_base</title><style>.edge>path:hover{stroke-width:8}</style>
<ellipse fill="#db2f2f" stroke="black" cx="261.73" cy="-530.72" rx="44.15" ry="39.7"/>
<text text-anchor="middle" x="261.73" y="-545.72" font-family="Helvetica,sans-Serif" font-size="10.00" fill="#ffffff">runtimepy.</text>
<text text-anchor="middle" x="261.73" y="-533.72" font-family="Helvetica,sans-Serif" font-size="10.00" fill="#ffffff">primitives.</text>
<text text-anchor="middle" x="261.73" y="-521.72" font-family="Helvetica,sans-Serif" font-size="10.00" fill="#ffffff">type.</text>
<text text-anchor="middle" x="261.73" y="-509.72" font-family="Helvetica,sans-Serif" font-size="10.00" fill="#ffffff">base</text>
</g>
<!-- runtimepy_primitives_type_bool -->
<g id="node11" class="node">
<title>runtimepy_primitives_type_bool</title><style>.edge>path:hover{stroke-width:8}</style>
<ellipse fill="#b42d2d" stroke="black" cx="154.73" cy="-415.53" rx="44.15" ry="39.7"/>
<text text-anchor="middle" x="154.73" y="-430.53" font-family="Helvetica,sans-Serif" font-size="10.00" fill="#ffffff">runtimepy.</text>
<text text-anchor="middle" x="154.73" y="-418.53" font-family="Helvetica,sans-Serif" font-size="10.00" fill="#ffffff">primitives.</text>
<text text-anchor="middle" x="154.73" y="-406.53" font-family="Helvetica,sans-Serif" font-size="10.00" fill="#ffffff">type.</text>
<text text-anchor="middle" x="154.73" y="-394.53" font-family="Helvetica,sans-Serif" font-size="10.00" fill="#ffffff">bool</text>
</g>
<!-- runtimepy_primitives_type_base&#45;&gt;runtimepy_primitives_type_bool -->
<g id="edge13" class="edge">
<title>runtimepy_primitives_type_base&#45;&gt;runtimepy_primitives_type_bool</title><style>.edge>path:hover{stroke-width:8}</style>
<path fill="none" stroke="black" d="M233.61,-499.98C220.33,-485.93 204.32,-468.99 190.21,-454.06"/>
<polygon fill="#db2f2f" stroke="black" points="192.44,-451.33 183.02,-446.46 187.35,-456.14 192.44,-451.33"/>
</g>
<!-- runtimepy_primitives_type_float -->
<g id="node12" class="node">
<title>runtimepy_primitives_type_float</title><style>.edge>path:hover{stroke-width:8}</style>
<ellipse fill="#b42d2d" stroke="black" cx="261.73" cy="-415.53" rx="44.15" ry="39.7"/>
<text text-anchor="middle" x="261.73" y="-430.53" font-family="Helvetica,sans-Serif" font-size="10.00" fill="#ffffff">runtimepy.</text>
<text text-anchor="middle" x="261.73" y="-418.53" font-family="Helvetica,sans-Serif" font-size="10.00" fill="#ffffff">primitives.</text>
<text text-anchor="middle" x="261.73" y="-406.53" font-family="Helvetica,sans-Serif" font-size="10.00" fill="#ffffff">type.</text>
<text text-anchor="middle" x="261.73" y="-394.53" font-family="Helvetica,sans-Serif" font-size="10.00" fill="#ffffff">float</text>
</g>
<!-- runtimepy_primitives_type_base&#45;&gt;runtimepy_primitives_type_float -->
<g id="edge14" class="edge">
<title>runtimepy_primitives_type_base&#45;&gt;runtimepy_primitives_type_float</title><style>.edge>path:hover{stroke-width:8}</style>
<path fill="none" stroke="black" d="M261.73,-491.09C261.73,-482.89 261.73,-474.13 261.73,-465.61"/>
<polygon fill="#db2f2f" stroke="black" points="265.23,-465.38 261.73,-455.38 258.23,-465.38 265.23,-465.38"/>
</g>
<!-- runtimepy_primitives_type_int -->
<g id="node13" class="node">
<title>runtimepy_primitives_type_int</title><style>.edge>path:hover{stroke-width:8}</style>
<ellipse fill="#b42d2d" stroke="black" cx="368.73" cy="-415.53" rx="44.15" ry="39.7"/>
<text text-anchor="middle" x="368.73" y="-430.53" font-family="Helvetica,sans-Serif" font-size="10.00" fill="#ffffff">runtimepy.</text>
<text text-anchor="middle" x="368.73" y="-418.53" font-family="Helvetica,sans-Serif" font-size="10.00" fill="#ffffff">primitives.</text>
<text text-anchor="middle" x="368.73" y="-406.53" font-family="Helvetica,sans-Serif" font-size="10.00" fill="#ffffff">type.</text>
<text text-anchor="middle" x="368.73" y="-394.53" font-family="Helvetica,sans-Serif" font-size="10.00" fill="#ffffff">int</text>
</g>
<!-- runtimepy_primitives_type_base&#45;&gt;runtimepy_primitives_type_int -->
<g id="edge15" class="edge">
<title>runtimepy_primitives_type_base&#45;&gt;runtimepy_primitives_type_int</title><style>.edge>path:hover{stroke-width:8}</style>
<path fill="none" stroke="black" d="M289.84,-499.98C303.13,-485.93 319.14,-468.99 333.25,-454.06"/>
<polygon fill="#db2f2f" stroke="black" points="336.11,-456.14 340.43,-446.46 331.02,-451.33 336.11,-456.14"/>
</g>
<!-- runtimepy_primitives_type_bool&#45;&gt;runtimepy_primitives_bool -->
<g id="edge16" class="edge">
<title>runtimepy_primitives_type_bool&#45;&gt;runtimepy_primitives_bool</title><style>.edge>path:hover{stroke-width:8}</style>
<path fill="none" stroke="black" d="M154.08,-375.77C153.14,-318.64 151.37,-212.31 150.4,-154.08"/>
<polygon fill="#b42d2d" stroke="black" points="153.9,-153.73 150.23,-143.79 146.9,-153.85 153.9,-153.73"/>
</g>
<!-- runtimepy_primitives_type_bool&#45;&gt;runtimepy_primitives_type -->
<g id="edge17" class="edge">
<title>runtimepy_primitives_type_bool&#45;&gt;runtimepy_primitives_type</title><style>.edge>path:hover{stroke-width:8}</style>
<path fill="none" stroke="black" d="M184.25,-385.64C198.16,-372.03 214.79,-355.75 229.07,-341.78"/>
<polygon fill="#b42d2d" stroke="black" points="231.6,-344.2 236.3,-334.7 226.7,-339.2 231.6,-344.2"/>
</g>
<!-- runtimepy_primitives_type_float&#45;&gt;runtimepy_primitives_float -->
<g id="edge18" class="edge">
<title>runtimepy_primitives_type_float&#45;&gt;runtimepy_primitives_float</title><style>.edge>path:hover{stroke-width:8}</style>
<path fill="none" stroke="black" d="M234.02,-384.59C224,-371.81 213.89,-356.13 208.73,-339.93 202.99,-321.94 207.51,-192.47 211.73,-179.48 215.38,-168.25 221.57,-157.18 228.21,-147.4"/>
<polygon fill="#b42d2d" stroke="black" points="231.13,-149.34 234.12,-139.18 225.44,-145.26 231.13,-149.34"/>
</g>
<!-- runtimepy_primitives_type_float&#45;&gt;runtimepy_primitives_type -->
<g id="edge19" class="edge">
<title>runtimepy_primitives_type_float&#45;&gt;runtimepy_primitives_type</title><style>.edge>path:hover{stroke-width:8}</style>
<path fill="none" stroke="black" d="M261.73,-375.84C261.73,-367.47 261.73,-358.6 261.73,-350.17"/>
<polygon fill="#b42d2d" stroke="black" points="265.23,-350.17 261.73,-340.17 258.23,-350.17 265.23,-350.17"/>
</g>
<!-- runtimepy_primitives_type_int&#45;&gt;runtimepy_primitives_int -->
<g id="edge20" class="edge">
<title>runtimepy_primitives_type_int&#45;&gt;runtimepy_primitives_int</title><style>.edge>path:hover{stroke-width:8}</style>
<path fill="none" stroke="black" d="M364.05,-375.83C360.18,-334.58 357.15,-267.63 369.73,-211.59"/>
</g>
<!-- runtimepy_primitives_type_int&#45;&gt;runtimepy_primitives_type -->
<g id="edge21" class="edge">
<title>runtimepy_primitives_type_int&#45;&gt;runtimepy_primitives_type</title><style>.edge>path:hover{stroke-width:8}</style>
<path fill="none" stroke="black" d="M339.21,-385.64C325.3,-372.03 308.67,-355.75 294.39,-341.78"/>
<polygon fill="#b42d2d" stroke="black" points="296.75,-339.2 287.16,-334.7 291.86,-344.2 296.75,-339.2"/>
</g>
</g>
</svg>
