<?xml version="1.0" encoding="UTF-8" standalone="no"?>
<!DOCTYPE svg PUBLIC "-//W3C//DTD SVG 1.1//EN"
 "http://www.w3.org/Graphics/SVG/1.1/DTD/svg11.dtd">
<!-- Generated by graphviz version 3.0.1~dev.20220405.0544 (20220405.0544)
 -->
<!-- Title: G Pages: 1 -->
<svg width="103pt" height="207pt"
 viewBox="0.00 0.00 103.46 206.51" xmlns="http://www.w3.org/2000/svg" xmlns:xlink="http://www.w3.org/1999/xlink">
<g id="graph0" class="graph" transform="scale(1 1) rotate(0) translate(4 202.51)">
<title>G</title><style>.edge>path:hover{stroke-width:8}</style>
<polygon fill="white" stroke="transparent" points="-4,4 -4,-202.51 99.46,-202.51 99.46,4 -4,4"/>
<!-- runtimepy___main__ -->
<g id="node1" class="node">
<title>runtimepy___main__</title><style>.edge>path:hover{stroke-width:8}</style>
<ellipse fill="#ac4949" stroke="black" cx="47.73" cy="-22.63" rx="44.15" ry="22.76"/>
<text text-anchor="middle" x="47.73" y="-25.63" font-family="Helvetica,sans-Serif" font-size="10.00" fill="#ffffff">runtimepy.</text>
<text text-anchor="middle" x="47.73" y="-13.63" font-family="Helvetica,sans-Serif" font-size="10.00" fill="#ffffff">__main__</text>
</g>
<!-- runtimepy_app -->
<g id="node2" class="node">
<title>runtimepy_app</title><style>.edge>path:hover{stroke-width:8}</style>
<ellipse fill="#c24747" stroke="black" cx="47.73" cy="-180.51" rx="47.96" ry="18"/>
<text text-anchor="middle" x="47.73" y="-177.51" font-family="Helvetica,sans-Serif" font-size="10.00" fill="#ffffff">runtimepy.app</text>
</g>
<!-- runtimepy_entry -->
<g id="node3" class="node">
<title>runtimepy_entry</title><style>.edge>path:hover{stroke-width:8}</style>
<ellipse fill="#b83d3d" stroke="black" cx="47.73" cy="-103.88" rx="44.15" ry="22.76"/>
<text text-anchor="middle" x="47.73" y="-106.88" font-family="Helvetica,sans-Serif" font-size="10.00" fill="#ffffff">runtimepy.</text>
<text text-anchor="middle" x="47.73" y="-94.88" font-family="Helvetica,sans-Serif" font-size="10.00" fill="#ffffff">entry</text>
</g>
<!-- runtimepy_app&#45;&gt;runtimepy_entry -->
<g id="edge1" class="edge">
<title>runtimepy_app&#45;&gt;runtimepy_entry</title><style>.edge>path:hover{stroke-width:8}</style>
<path fill="none" stroke="black" d="M47.73,-162.2C47.73,-154.67 47.73,-145.6 47.73,-136.91"/>
<polygon fill="#c24747" stroke="black" points="51.23,-136.64 47.73,-126.64 44.23,-136.64 51.23,-136.64"/>
</g>
<!-- runtimepy_entry&#45;&gt;runtimepy___main__ -->
<g id="edge2" class="edge">
<title>runtimepy_entry&#45;&gt;runtimepy___main__</title><style>.edge>path:hover{stroke-width:8}</style>
<path fill="none" stroke="black" d="M47.73,-81.23C47.73,-73.28 47.73,-64.1 47.73,-55.44"/>
<polygon fill="#b83d3d" stroke="black" points="51.23,-55.26 47.73,-45.26 44.23,-55.26 51.23,-55.26"/>
</g>
</g>
</svg>
